<mxfile host="app.diagrams.net" modified="2024-06-21T17:27:32.213Z" agent="Mozilla/5.0 (Windows NT 10.0; Win64; x64) AppleWebKit/537.36 (KHTML, like Gecko) Chrome/126.0.0.0 Safari/537.36 Edg/126.0.0.0" etag="5lJp4luspb_Md_GcNE4w" version="24.6.0" type="device">
  <diagram name="Page-1" id="v0R7hxKmTwF-hSitJuty">
    <mxGraphModel dx="1056" dy="670" grid="1" gridSize="10" guides="1" tooltips="1" connect="1" arrows="1" fold="1" page="1" pageScale="1" pageWidth="2700" pageHeight="2600" math="0" shadow="0">
      <root>
        <mxCell id="0" />
        <mxCell id="1" parent="0" />
        <mxCell id="KACX-hMGY0aRz_YMzDZ6-12" value="" style="rounded=1;whiteSpace=wrap;html=1;fillColor=#ffffff;fontColor=#333333;strokeColor=#666666;" vertex="1" parent="1">
          <mxGeometry x="220" y="150" width="850" height="480" as="geometry" />
        </mxCell>
        <mxCell id="KACX-hMGY0aRz_YMzDZ6-1" value="&lt;span class=&quot;SCXW231389581 BCX8&quot; style=&quot;-webkit-user-drag: none; -webkit-tap-highlight-color: transparent; margin: 0px; padding: 0px; user-select: text; color: rgb(0, 0, 0); font-family: Arial, Arial_MSFontService, sans-serif; font-size: 16px; font-style: normal; font-variant-ligatures: normal; font-variant-caps: normal; font-weight: 400; letter-spacing: normal; orphans: 2; text-align: left; text-indent: 0px; text-transform: none; widows: 2; word-spacing: 0px; -webkit-text-stroke-width: 0px; white-space: pre-wrap; background-color: rgb(255, 255, 255); text-decoration-thickness: initial; text-decoration-style: initial; text-decoration-color: initial; display: inline-block;&quot;&gt;&lt;span class=&quot;WACImageContainer NoPadding DragDrop BlobObject SCXW231389581 BCX8&quot; role=&quot;presentation&quot; style=&quot;-webkit-user-drag: none; -webkit-tap-highlight-color: transparent; margin: 0px; padding: 0px; user-select: text; cursor: move; left: 0px; position: relative; display: inline-block; text-indent: 0px; top: 2px; width: 619px; height: 408px; transform: rotate(0deg);&quot;&gt;&lt;img class=&quot;WACImage SCXW231389581 BCX8&quot; src=&quot;data:image/png;base64,iVBORw0KGgoAAAANSUhEUgAABQAAAAOECAYAAAD+FZwDAAAAAXNSR0IArs4c6QAAAARnQU1BAACxjwv8YQUAAAAJcEhZcwAADsMAAA7DAcdvqGQAAHVdSURBVHhe7d0JnFxVnTf8g8BACIREtoCRgAEmLAFFiLKICyiKiiigjrg8As6orw8KOPrqKCiiPjKCA+MIjwP4gsKoLCIqbrizaEAcRJZhGcCJGDYDgRAYYHjv/9a93berq3pJmqTq9Pfr51DnVtdyq1J17fvr/zknAQAAAAAAAAAAAAAAAAAAAAAAAAAAAAAAAAAAAAAAAAAAAAAAAAAAAAAAAAAAAAAAAAAAAAAAAAAAAAAAAAAAAAAAAAAAAAAAAAAAAAAAAAAAAAAAAAAAAAAAAAAAAAAAAAAAAAAAAAAAAAAAAAAAAAAAAAAAAAAAAAAAAAAAAAAAAAAAAAAAAAAAAAAAAAAAAAAAAAAAAAAAAAAAAAAAAAAAAAAAAAAAAAAAAAAAAAAAAAAAAAAAAAAAAAAAAAAAAEB3q1WXAOTtqeoSgInh92gAoG88o7oEAAAAADLkL5cAk0NZAXjlovPLDQCWz24zD6p6fo8GAPqHCkAAAAAAyJgAEAAAAAAyJgAEAAAAgIwJAAEAAAAgYwJAAAAAAMiYABAAAAAAMiYABAAAAICMCQABAAAAIGMCQAAAAADImAAQAAAAADImAAQAAACAjAkAAQAAACBjAkAAAAAAyJgAEAAAAAAyJgAEAAAAgIwJAAEAAAAgYwJAAAAAAMiYABAAAAAAMiYABAAAAICMCQABAAAAIGMCQAAAAADImAAQAAAAADImAAQAAACAjAkAAQAAACBjAkAAAAAAyJgAEAAAAAAyJgAEAAAAgIwJAAEAAAAgYwJAAAAAAMiYABAAAAAAMiYABAAAAICMCQABAAAAIGMCQAAAAADImAAQAAAAADImAAQAAACAjAkAAQAAACBjAkAAAAAAyJgAEAAAAAAyJgAEAAAAgIwJAAEAAAAgYwJAAAAAAMiYABAAAAAAMiYABAAAAICMCQABAAAAIGMCQAAAAADImAAQAAAAADImAAQAAACAjAkAAQAAACBjAkAAAAAAyNhq1SUAeXsq/nPlovPLjdz98MJfpk+895Rqa9Cue85L0zeclmZvPSu94R2vSDM2XL/6Sff7tPvEl45I+75hr463rx9//eJx3/K3r0mbbr5x9ZNBTzzxZDrr5AvTnbcsTD++6PLyuhkbTk+77Ll9euVBL06777NzeV3TsqWPpt9deUP6l+PPSf95053Vta3nO+JT/yttte3s6pqhr+PCBV9Kv7/6pjG9rhC3r/f5z3+8J536mXPSbTctHHjOeL7Zc5+dDv3AgUPeu7DbzIOq3qD6dYUDD31V2n7nrdMaa6yerrj0mnT0Wz9TXn/4378pHXb0wWW/Fq/3ZXPeWvbjMS75w+llv139nC8/YI903GlHlv3mfpz4tY8Oez+PefcXyve9vk+n/e5kvLevv2sjvS/xOdln/93TTvPnVj9pve9vmP/eaqu75r9VOOPE89Lp//iNsj/Se1aLf4Mrf/7v6ZrLri//feM+B75z37TLi+YN/DuFse5P898gd41/U79HAwB9QwUgAJPGVZddV4Y/EZTst8Nh6bwzvl/9ZGLUj3/+6ZeUockRB32yDPxqt954Z9r/uX9XPn8d/oXF9z1QbkcoFveJAKzpw+/4XPmzZvgX4vne9tKj04kfO7O6ZmLE+xL7H/vUfM54vnhtY33v6tcV7d37fyy9aNabiuseLEO558xthZbxXsR1TV/67LlVL6XPnvnBqjd+x3/gS0Pe/15Rvy/xXsb7st8Oh6/QfsZ9L/jKD6ut1uNfu+Cmamu4CAvj8xTPX//7xn3i3yL257j3jS0wBgCgf/jLJcDkMGkrAKPCbNaWm5T9sPD2u8uwJAKP8KuF3yirnZr3icqxLbeZVfbbTd9gWpoyde2uz/GHa24tg5XaaRcfX1Z4RUgT4V/9vHXF1Yv3m5/OPvnCMhCqHXT4funo4w8t+80KrKiyOrK4PqrvIkw84uBPDTzeV392YlkJ2F4BGPv7wP1Lyu1wyXm/GKgUa3+dG222Qbr+mlvKEKgWQd2HTnhXWrTwnnT2Kd8eEgg2q9CalW5RJdn0vXN/VoaHoa74a39ddfVYt+s7qZ+zebv2irujPn1YOviwV1VbwysA4/ma6ueOasePnPSesh/WXmet8n2vH7/95+3a35d4H99+xOvKfliyeGm66KuXDryfdbVi8/WP9Bzxb1VX6UXYV/+bxecqPhPNz1BTs1IwxO1ed8je6Z4/3T+kwrSudG3uT/zb7Xfwi8t+u/r9mQwanzG/RwMAfUMFIABZi8Aigoy6RfgUwVstAq92EYpFgNOpRfjXrvkcEbpEUFK79OIrystvnfWjgbAuQpeL//3/lvsSoV0EUT+97Wvlz0IEiHVVXAR2tRgiXIcscb+ojougJsKjZ20+GHI2xf42978Zhra/zgiUPnLo56uftsLLc35+YhlgxmuLfjPc++DbP1f1hqrfi7qd9PXBQLGuVIvni/chRCAXgWb47FGnlpchws4VddI/nDGsorKp+fqj1WIod/P69nCr/eftrd2cubOGvCcRSn7x/GOqn6b09dO+U/UGjfQcdfgX6s9YhIwf+6dWWBefofaqwngf6vAvgsL4zMXnNT5LET6edekJA5WZEdq2v2/x2em0L9EmS/gHANCvBIAAMMG23WlO1UvpwSrIu+6qwSGZMe9bM8AJEdTVgVhY8Mtry8tmxVUM24y522p1MBfhTadgcrwidGxWKDbnpqvtte/8qpeGVAMuj/d+5C3l84Rj33NKWclWVwpG5d6KhErNEPazRw+GirmJkK6uOD3gbfuk5+22XdkPC37e+gzV/vTHu6teKkPw9s9MfCZP/96ny6rYU84/dkI+UwAA9AYBIABZu/3mheUwxrrF3HXN+dJiwYN2UYUWQ0Xb29jmvXuwnHuuNm/XVoh29WXXl5dhm+23qHpD7faS51a91lDlENVVdVVWiBAwhiDGXIGxPyNVt43Xo488VvVS2vuA3aveUBEKNfcn3tN2zfc7Qr3mnHLN6st4rPcf9/ayH2Ficxjr69/xirK/vKJaLULEEBWGnfZzRcS/Z6fPSLT2OQ3DA/ctGfa+vO+g46qfpvTmd7+26o1PLA5T2+d1u5fvaQwdDu1Vhb+7YvC2sdhHJ3H/9nC6FkPAO73eaJ1eMwAAvUMACEDWIjCLOczqFkNC6yq3GDrbKeyoF/Nob80qvqZ43AjlosUCGc0qughlQvO6bpVVzfn4YpXgWlRlRUVbXS0XYh/jtcRquRO1CEiEpbUddt6q6g23c7WybzfN9ztCvXjvQgRTsfpyU1QwNgPFEEObu4VQ4xEhYv2eNYcWT4T492z/fNStGaTW4t+r/X2pKyhjPsJm5V4tHqv+XLW3Wh3yxXtYV0zWYWI8ZzMgbn5+N575zKo3drG/7a+1bp1eMwAAvUMACMCkdMkfziiHznYSYVvMddfeDjx0cDGJ0UQgE3Pm1aFMHXJFcNStWur3Vw8GNHu84vlVr1WVFfMFXvKH08uFN2Jf6iqvEENAJ6ISsBlAxhxw3fzkotaccyEWfxiLGN4cw0o7Dev95KmD8wrG6+o09Hh5RIhYz4kXYdhIK+OOV/x7tn8+6hYLr4xVfNZiDshuofBI4t88XlfYYMNp5QIw0W689rbyuvDdrw/+OzY/U82wd6wiqOz0eqON5zUDALDyCQAByFoEZrH6cbR6SGi49NuDIVa79oVD6tYtmGoGhrEab8yh1gz/QiwCUbvx3wcDmqZm6LbetHWrXksd8MWQ4NiXCNOaIeC5HRaRGK9miBPBUvsiEqE5T2DoFOjV73e8D3UFXnNhk3ZTp06peq2FLyZShLx1+BoLnKzfYX+XR/uiHs3WKcyL8Kx+XyJ8rsVw9E7vc4h/3/j8dmqhGe7Fv1es/hytucpvrDRcmzlrcHGSH5w/uLhMU4Sk3YaWR4DY6fVGW54AkwGxSruWfwOAVUoACMCk0RwSGsNnJ2peuGZgGCuqdhq+Giv41mLYZvtzNxfACDEkNEKY/XY4vBzyefir/2FYUHTEp/5X1ZsYEeLUYVmIlYubzxn7c+Y/XVBttUKtkTQr8MKx7/6nqrdyff7sD5eXEVw2qxdXlQhN6zA69unkT5xV9tuNtApwqMO9+Ew3q/Gi1f82MWy3/qzF3JP15z+G7bZXRMa/b4Sk9dDyTiEgAAD9abXqEoC8ldUHUX00GcQwyKiEClEtVQcmIUKPerGJCLvOuvSEMqhq3icq+mIRiU6iiioqAUd6jm4OecnRQ1bOjZAmFgn5yhcuGFJVFwFOhImheZ+oCIv53WKobgwXPvmYswfu99PbvlYGeKPt12g/j7Ao5qhrivfjgcUPDaw2W6ufMzTnpWv/nMWCJXW4GfMutg+9bj5nvCcxJHYs6uds3qe+rvkehlioIkKvWrfn6fSYTfXP47Pz9iNeV/Y7idWS473p9ngRrO7/3L8b+PeLytEIj8f6XjRvF/8+MUS8qdvPm//+IQLBdx55YPrj7X8e8u9b/zu1709zGHG75vuds/rftDBRv0eXx+ffzHthuUFeXnDdr6ue8y4AVi0VgABMKhHeRZARIliLKrd2MYQyQpJO7YIzR18JuJsvnn/MkGG7EUg1FyUJURm29/6DlXWxAEi9vxGi1YuaxL7U94v59SZqCGYEghH+1JViId6PZjgUP4vAaqzP+ZGT3lP1UrlC8qqoLDvy+EOr3sSIz077Z6PZHrh/SXXLziJ0jsVOase+55SuQ4E7ueS8wSG8L95vftUbFP+OdTVnc9XrCOmaQ+HjMxSfwea/bwSGnebHjM9rp9daNwAAeteKL7EHQD/4RPzn8A++sdzI3dKHlqXHlj2W5szdPL1o313TlHWGBlXPfeF26Z677i9/fs9d96UXvXJ+Wrb0sYH7jNSiYm/7nbce9Tk6idu86o0vSds9d6s07ZnrpanF9rJH/ju96BXPTwe87RXp7//Pu9ILXvrc9IxnDP59bs2/WiO99DW7pV332jGtPXXt9KzNN04bbDg9rb3OlPTOIw9KHz/lfellxc9ro+3XWPb72c/ZtFytd8u5s9Kaa65RXPOMtFVx+91fsUs67KiD0wf/z+Fpw01mtG5c+eOtfxp4j2J/m9Zbf2rxmDPLx9qs2P+niv9FtVvticefGPj3qN/fsaifs3mf+rr5L35umvmsDcvrQrzOeh9Gep5Oj9nUfJ0jtfq9HenxYv9WW221tMHG09MzN5yWZm/9rDRt+rpjei9+dslvys9C3O7Ad76yunaoTWdtlJ76n/8p3/P4zNf/1vGYry4+h8/aYmZad9o6afF9D6XXvOVl5b/tB477X0PCv+a/zWit/d89V2d8/ptVL32yulxR5fH5XZsMzhNKPk6/Z2DBnYn6vADAclGKDjA5TKohwABPF0OAGQ9DgAHoFYYAAwAAAEDGBIAAAAAAkDEBIAAAAABkTAAIAAAAABkTAAIAAABAxgSAAAAAAJAxASAAAAAAZEwACAAAAAAZEwACAAAAQMYEgAAAAACQMQEgAAAAAGRMAAgAAAAAGRMAAgAAAEDGBIAAAAAAkDEBIAAAAABkTAAIAAAAABkTAAIAAABAxgSAAAAAAJAxASAAAAAAZEwACAAAAAAZEwACAAAAQMYEgAAAAACQMQEgAAAAAGRMAAgAAAAAGRMAAgAAAEDGVqsuAcjbU/GfKxedX24AsHx2m3lQ1Zuw36PL4/Mrpm1QboTN156StpuybtGmphlrrlldO+ib9y5K1z3yULXV3VGbbVHev9vt95w2Pa27+prpBetNT2s0Xs2KPH485r4zNir7tWsfXpLOv//usj/SPs1bZ73011PWSZuvNWXCX/cri33ao9i3puZ+fWr21uVl7YniX+X6pUvSfyx7pHyM2x5blg6YsXHaed310lbFv0vth4vvTZcteaDsv2fTzdNmf7VW2a+94LpfV730b0W7qWjHlVsAsJIJAAEmBwEgwAR4ugLAbuastU76ly23HRKIffzOW9KPltxfbXX3rb9+XhlIjXb7GWuskQ7dcFZ640Yzy+0Vffz6+lqEZMcsvK3sj3Wfdl13WvrHzeemKasPDlha0f36+Xbzhzxec79+M++F5WWI8O8Dd9yQrnp4SXXNUPF+fWubncvHWvz44+mVN/22vD7+rc7dZseyX2sEgGHLot3R6gLAymUIMAAA9IDDN56Vjps1p7yMkCnc9tgj6W9uvbasVuukvk+nNmP14VV0cfujZ25RVhxGYBUWP/FEOnHRHWWY1W68jx9O/fMfq97Y1I/XfN0Rvr3+5mvSrcuWltvtmvvR3rrt15fuHn2/4j14zU1XDwn/6vcsQskQ79ff/zGK+VIZzMbPQvxbXV5VA4a2f7NTiib8A2CVEQACAEAPePWMjcrhs+/aZFb6wba7DARLETj97e03lP129X06tWa1Wy1uH5V+MeT17K13HAgBw48fGF5dN97HD1F11y2w7KR+vPp1R+AW4nUf81+tCr12zf1ob93265v3L0p3/fdj1VZn5//l7vJ5Q+xHVA3GfsV79sUtt0tv3KBVJRkBYR32vWHDmQPB5af+dGtZQRjtc3cNyfs+Wl0CwCohAAQAgB4UoVMdOIXRwqvxinn/PrxZK2QMY5lfbyTNqsIIvyIEWx4RuNVzIkZV3bIn/6fsL6+o3KsDus/8qXOgWPvZg3+peikd9MxNhoWJ7990i/TlLbcrg8F6TsF4Hz/37G3KfoSHF963KP3kgXvLfW/oXMoIACuJABAAAHrUPtOeWfVSuv3RZVVv0PcW31vOZdfexlKBF8NdP/xfN1dbrQU82o338Y979pzyMsKvCMGWV3Nfbl72cNUb1GmfonXarxnPWDN9/Flblf2o3Ou27xFY1qFdBJmdFiKJsG+ndacNCwbjujq0jOHUX1h0Z9kHgF4hAAQAgB61UWMxjV8/PDi/XO30exaWC1m0t3p123ZRAReLY0SLuQXr4a5h/rrDA8DxPn6skFsHYRGCRfXevKmtufPGo3mfRY8Pr3zstE/Ruu1XVOvV1YkRenaqTryn8Txz1ppS9cYuVh+uNd9XAOgFAkAAAOhR9zaG/e4wZWrVGxTDWyNwa2/z1lmvusVQUQEXc/RFq0OqclXbv35ex4q38Tz+VY88WF7WQVg8/tfuu6vsj9d1S0euYOy0T9G6ve7w+S3+uryM/epUndhcPOS2x4ZXW46muSBIaA7fBoBVTQAIAAA9akEjCJu55mA1YO2jz5pTLujR3mL+wE7aV/WN4O+7c3dJmzUqDZvG8/gDgeKaaw4s5BEVhKOFeZ1c1lhNt1MFYad9itbtdYd4jREShqgWfPCJJ8t+LYb1Nldf7jb3YCz+0e1ne64/o+p1DmwBYFURAAIAQA+KueoiQKttM2Xdqrf82lf1jVAs5rWbaG/dcLOBMG288+FFwBYViiEeY+MOwefy+uis1hyF4aLF91S9QS9ff8Oql9Ivq31oinkGj7rzpvSSGxakb967qLoWAHqfABAAAHpALPIRK/1G8Pe+229If1u0WlTrtS88Eer7dGqxyMeKWt7Hj309cubssj/afHj140XwF687ArZaLN7RKaBs7kd7G2nV4NivujqxbZXe0ns32bzqtaoEX3nj1QOLi5x41x3ldSGCyTdsaIgvAP3jafh7HwA9qJzu/MpF55cbACyf3WYeVPUm7PfoDstRDBVzyb1/0y0GgrBYwKOukBtJDHeNYbHN28eQ327DfWsr8vi/mffC8jLEQhtvv+X3Q4K2+vnH8hwxn15zSO9Y9yvC0qhurG9f72ct9us1N109JJhs7ncEkc0QspNu72MEkK//j9+V/diPOjAsOO8CYJVSAQgAAD0mQquoVDtnq3np6M0Gw79+Evv84cbKuKOJqrp43RH8RcA20nx+KyL2q65O7CRWDP7B3OeXwWu9cnCIfYtQL342WogKAL3GX6IAJgcVgAAT4OmqAGxWoNF7ompweULYF1z366rnvAuAVUsFIAAAwAj6sQITAJoEgAAAAACQMQEgAAAAAGRMAAgAAAAAGRMAAgAAAEDGBIAAAAAAkDEBIAAAAABkTAAIAAA87Z54KqW7/vuxtOzJ/6muefotfvzxlf6cANCLVqsuAchbcdqV0pWLzi83AFg+u808qOpN2O/R5fH5N/NeWG6MVYRar/+P35X942bNSfvO2GjIdeFbf/28tNlfrVVttbzgul+Xl/V9mj5+5y3pR0vur7Zauj12N6+YtkH61Oytq61W6Hfyn+9Iv314SbrtsUeqa1Padd1paa91n5nesOHMtEbxTv5w8b3pmIW3VT8dWexTqG/f/loi9DvprjuGvZbwxg1mpvdusnmasvpgHUTzuWessUb61jY7D/l5p/d6rOr3u+C8C4BVSgUgAABk6NQ//7HqrRoR/n3gjhvSN+9fNCT8C1c9vCSduOiO8ucT6dricV950287hn8h9uX1N19ThnqdLH7iifS1++6qtgAgHwJAAADIUIRgEYiN1VGbbVFWDZ40e251TWeHbzyrvF2nFo8RIvx7+y2/L4O+MGetdcrHvXyHF6ZztppXVuKF+Pk3712U9pq2wZDHieeotT9f3LaTeM4P/9fN1dbgc/58u/ll5V5U94UI+T54x3+Ut+/k9HsWdg0IAaBfCQABACAzEX6Fz911R9egq92MNdcshwxvufaU6prONi9uE7fr1OIxwj2PPzZQ9RfDfc/dZse0x7Tp5XDfraZMTe/fdItyH+NnIYbcNh8nnqPW/nzN4blNP3ng3jLcCzEUuX7OuH0M2/3BtrsMPF/s228eeqDsN9Uh4aqungSAiSYABACAzBwwY+PyMoKuCMZWtuuWDlYevnb68DnzIgiMgO6LW26X3rhRqxpwRV22ZDDQe2WXefpi3sHanx57tOoNOnLm7PJyvNWTANDrBIAAAJCZPdefUVbBhS8sunNCV8GNBTNicYtOrdYM4+ZNbVXdPd0W/8/jVS+lnbs8587rrlf1UrrukYeq3qCoFFye6kkA6HUCQAAAyFA9H9+qXthixuqtYcFPt7883hr+G9Z8RufTnA3W+Kuq191xz26tMryqqicB4OlgOXqAyUENA8DEmqjfo8vj82/mvbDcGKtYpOL1//G7sh8LXETlWvO6WCwj5sv717sXlota1Ne136eT0R47FuV4dZf7xnOGWNgjVvkNsRBHzMU3Hj9cfG9ZaRg67Wunn3/8zlsGVv+NhUZirsF2ly95IB11501lP17HuzaZNeSx6n+H+rFiTsBvbbNzeskNC8rrR3rfOmlURTrvAmCVUgEIAACZeufGs0Zc2CKCvVuXLS1b7d7iupGMtAhI7VlrrV31Uvr1w8MX2whlSHjXHRM21968dQaH9/5syeKqN9QPFg9W9DUXGmn3nk03Ly9XdfUkAEwUASDA5BCVB5qWUzulw3WatjJbX4jFNpoLWzQtfvzxsqrvkFuvK1sdxC1oLOAxf93xVe7VXrDe9IHg8ccP3ldW2TXnIYxKvKgQ/Ob9iyZsrr2Y97B2wV8Wlc9ZP248d2zX70Hs217VHImdRJgZFYKhrqAEgH4mAAQA+k2MvzuiaMPH9wHD7D19cGGLphlrrjnk+r+9/Yb0vqLVgVeEZHGbdmfd++dyiGy3FprBY1TRxRDbGEYbP3/ljVcPDMON5/iXLbctb7+imqFd/Zyvuenq8jnjuethviH2bcrqI58KvXXDzQZCTADodwJAAKDf7Fpdvri6BEYQ4dqHqwVB2p299Y5p13UHV8y9qqoCjGDwi1tsW/bbxeIYUUnXrdVirryYM68pfh7hXIhw7XPP3qZjyLi8Ysjz0TMHX2s8V3Of4jljTsKxzOMXAWEdYgJAv+ub4QsAAJVLi7Z30X5StH3iCuhjy7UISAxp/WUVbM2bOq2sfmteF8Nb2yvcYtjtw08+Xvbr+9SaP1t39TXLIbzNqrzmY4+mPVyL+16zdEn602OPpuseeSjtOW16ObR4pOAv5ia8rhqK3L6vYbSfx/DmG5YtHXjOmB8w5iXcubht+/vSfKz2fY8hxM2VgDs910gsAgJAr/B/RABAP4lhvw+3uqV1iza4egH0n+UKAOkPAkAAeoUhwABAP2kf9msYMAAAjEIACAD0k6Oqy1r7NgAA0EYACAD0ixj+G3P/NcW21YABAGAEAkAAoF90G+5rGDAAAIxAAAgA9It9q8t2hgEDAMAIBIAAQD9Yo2hHtLrDGAYMAAAjEAACAP3gBdVlN4YBAwBAFwJAAKAfvLG67MYwYAAA6EIACAD0upGG/9YMAwYAgC4EgABArxtt+G/NMGAAAOhAAAgA9LrRhv/WDAMGAIAOBIAAQK8bawBoGDAAAHQgAAQAetm8os1sdcfEMGAAAGizWnUJANCL9ija/9PqDrFm0R5vdYf4btHObXWhLzwV//nNvBeWG+TlBdf9uuo57wJg1fJ/RABAPypDk4LfZeh3AsCMCQAB6BWGAAMAAABAxgSAAAAAAJAxASAAAAAAZEwACAAAAAAZEwACAAAAQMYEgAAAAACQMQEgAAAAAGRMAAgAAAAAGRMAAgAAAEDGBIAAAAAAkDEBIAAAAABkTAAIAAAAABkTAAIAAABAxgSAAAAAAJAxASAAAAAAZEwACAAAAAAZEwACAAAAQMYEgAAAAACQsdWqSwCAfvJUdel3Gfpd/Vkmb45VAKxSKgABAAAAAACAnhJVUyqnAABgDFQAAgAAAEDGBIAAAAAAkDEBIAAAAABkTAAIAAAAABkTAAIAAABAxgSAAAAAAJAxASAAAAAAZEwACAAAAAAZEwACAAAAQMYEgAAAAACQMQEgAAAAAGRMAAgAAAAAGRMAAgAAAEDGBIAAAAAAkDEBIAAAAABkTAAIAAAAABkTAAIAAABAxlarLgEA+slT1SVMNn5/BwDGTQUgAAAAAAAAAKxCUfWq8hUAWC4qAAEAAAAgYwJAAAAAAMiYABAAAAAAMiYABAAAAICMCQABAAAAIGMCQAAAAADImAAQAAAAADImAAQAAACAjAkAAQAAACBjAkAAAAAAyJgAEAAAAAAyJgAEAAAAgIwJAAEAAAAgYwJAAAAAAMiYABAAAAAAMiYABAAAAICMCQABAAAAIGMCQAAAAADImAAQAAAAADImAAQAAACAjAkAAQAAACBjAkAAAAAAyJgAEAAAAAAyJgAEAAAAgIwJAAEAAAAgYwJAAAAAAMiYABAAAAAAMiYABAAAAICMCQABAAAAIGMCQAAAAADImAAQAAAAADImAAQAAACAjAkAAQAAACBjAkAAAAAAyJgAEAAAAAAyJgAEAAAAgIwJAAEAAAAgYwJAAAAAAMjYatUlAADQG95SXTadU10eUl02nVtdAgAAAAB94NKiPTXGFrcFAAAAAPrIfkXrFPZ1anFbAAAAAKCPbFS0TmFfpxa3BQAAAAD6zO+L1inwa7a4DQDAqKwCDAAAvefL1eVIxnIbAAAAAKAHjWUYsOG/AAAAANDHRhoGbPgvADBmhgADAEBvGmmIr+G/AAAAANDnRhoGbPgvAAAAAGTgz0VrD//iOgCAMTMEGAAAetep1WVTp+sAAAAAgD40r2jtFYBxHQAAAACQieYwYMN/AYBxMwQYAAB6W3PIr+G/AAAAAJCZ5jBgw38BAAAAIEMx9NfwXwBguaxeXQIAAL1r86JdX7QflFsAAOMgAAQAgN73UNEiAPyvcgsAYBxWqy57VcxzArnp9e8dvcHxjxw5/uXJ8YocOV4xFo5/5MjxL1NWAQYAAACAjPVFBeCVi84vN6Cf7TbzoKrnLyqMieMf2XD8y57jFdlwvGKcHP/IhuNf/lQAAgAAAEDGBIAAAAAAkDEBIAAAAABkTAAIAAAAABkTAAIAAABAxgSAAAAAAJAxASAAAAAAZEwACAAAAAAZEwACAAAAQMYEgAAAAACQMQEgAAAAAGRMAAgAAAAAGRMAAgAAAEDGBIAAAAAAkDEBIAAAAABkTAAIAAAAABkTAAIAAABAxgSAAAAAAJAxASAAAAAAZEwACAAAAAAZEwACAAAAQMYEgAAAAACQMQEgAAAAAGRMAAgAAAAAGRMAAgAAAEDGBIAAAAAAkDEBIAAAAABkTAAIAAAAABkTAAIAAABAxgSAAAAAAJAxASAAAAAAZEwACAAAAAAZEwACAAAAQMYEgAAAAACQMQEgAAAAAGRMAAgAAAAAGRMAAgAAAEDGBIAAAAAAkDEBIAAAAABkTAAIAAAAABkTAAIAAABAxgSAAAAAAJAxASAAAAAAZEwACAAAAAAZEwACAAAAQMYEgAAAAACQMQEgAAAAAGRMAAgAAAAAGRMAAgAAAEDGBIAAAAAAkDEBIAAAAABkTAAIAAAAABkTAAIAAABAxgSAAAAAAJAxASAAAAAAZEwACAAAAAAZEwACAAAAQMYEgAAAAACQMQEgAAAAAGRMAAgAAAAAGRMAAgAAAEDGBIAAAAAAkDEBIAAAAABkTAAIAAAAABkTAAIAAABAxgSAAAAAAJAxASAAAAAAZEwACAAAAAAZEwACAAAAQMYEgAAAAACQMQEgAAAAAGRMAAgAAAAAGRMAAgAAAEDGBIAAAAAAkDEBIAAAAABkTAAIAAAAABkTAAIAAABAxgSAAAAAAJAxASAAAAAAZEwACAAAAAAZEwACAAAAQMYEgAAAAACQMQEgAAAAAGRMAAgAAAAAGRMAAgAAAEDGBIAAAAAAkDEBIAAAAABkTAAIAAAAABkTAAIAAABAxgSAAAAAAJAxASAAAAAAZEwACAAAAAAZEwACAAAAQMYEgAAAAACQMQEgAAAAAGRMAAgAAAAAGRMAAgAAAEDGBIAAAAAAkDEBIAAAAABkTAAIAAAAABkTAAIAAABAxgSAAAAAAJAxASAAAAAAZEwACAAAAAAZEwACAAAAQMYEgAAAAACQMQEgAAAAAGRMAAgAAAAAGRMAAgAAAEDGBIAAAAAAkDEBIAAAAABkTAAIAAAAABkTAAIAAABAxgSAAAAAAJAxASAAAAAAZEwACAAAAAAZEwACAAAAQMYEgAAAAACQMQEgAAAAAGRMAAgAAAAAGRMAAgBMPlOLtkarCzCpbFRdAkwqAkAAgMnndUV7vGgnF22PogkDgcninqL9vmjvK5owEJg0BIAAAJPXEUW7rGjNMDCqAwFyNq9o/1w0YSAwaQgAAQAIdRj4cNEuLdp+RRMGArkTBgKTggAQAIB2exfte0UTBgKTiTAQyJYAEACAkbSHgU6IgcmgUxgY1wH0JQEgALCyPKX1TDunaMsjwsD2E2LIUafvjZZHWx51GBjHvT8X7ZiiqYoG+ooAEACA8fpJ0f7fon2l3AKYHK4r2qeLdmrRlsYVAP1CAAgArCyraT3TDinaeEXo9+qirVu0fYp2SdGcAJOrTt8bLY82XhH6/e+ibVy0HYv2xaLdWzSAviIABACgm1OKtmfR1iya0A+YLOo/eAj9gGwIAAEAaGqGfu8v2uVFe6JoADnrVOUs9AOyIQAEAJjcFhXt2KJFlYvQD5hMTG0ATBoCQACAyeeBotWh36ZFO65oMc+V0A/IndAPmJQEgAAAk0+c8NahH8BkIvQDJqXlWQVpZXoq/nPlovPLDehnu808qOr1/PeO3jAhx79lSx9NN19/R7r5utvTdVfdlH580eXpOXNnp5e99oXpxfvNT1tsPSutscbq1a2He+KJJ9NPLr48Xf6j36YH7luSrrrsujRjw+lplz23T/N2nZv2fPnz06abx/zYQy2+78H0hY+dWW2lNLt4nsOOPrjaGuqYd3+h6qV03GlHpmsX3JQuOPP71TVjE/ty8GGvSued8f3ydY4k9mW/g1/ccb+b4jVc+u0ryse77aaF6T9vurN87+bMnZX2eMXz0177zk9Tpq5d3XpQ+/7HaxqL5vtw4KGvSjvNn1ttdTfe96p+n8JY36v4nGy17ezqmuXj+Je9vvx97dYb70y/uGRBOv0fv1Fdk9LLD9ijvHzPRw8ZdoxoP66NRf39H8t3df0N10/77L/7kO9++3OOdGxov+3b3/+GtMFG04dcd+TxhxbH8PWrrUFx3wW/vDb94Zpb0zWXXV8e73bdc1569VtemubvtVPH+zSPWWPR7bl7jeMV4+R8lWw4/uVPAAgriQMq47TCx784oTvkJUcXlzHSr7vTLj6+4wnlFZdek47/wJdGvf/hf/+m9I7iRLMZJP75j/ekN8x/b7XV8tWfndgxSGp8N8rX+8MLf5k+8d5Yg2Ds4qQ9TrTjhDRCzrGIMO+Tpx4xbJ8i9PzWWT9KJ/3DGdU13X3iS0ekfd+wV7XV0r7/Y/03bL4PnR63k/G+V/X7FMb7Xv0/Hzsk7b7PztU14+P4l72++n0tvuP7P/fvRj22HXT4fun9n3jHwLGt03FtNPV7Mp7vavyR5Z1HHjgQ1sdxPAK50PwOt2t/jp/e9rX0wP1LhuzzhQu+NCzYjHDy3ft/rNrqLPbpgt98ccgfPZrHrLHo9Ny9yPGKcXK+SjYc//JnCDBAhjqFf3ECFyePcdkUJ35x+6Y4kTz6rZ8ZdoIc948wqCmqZ4568/HVVnfHvmd8od7TLU6oO+3Tce87ZVj41+29i5PtqKTLXbxXEQZHcAL9Lqqam8e2+G5H6H7Upw8bcnw7//RLyuPByhb7Fseg+rh8wNtitGJLhPbdvoffO/dnVa/1mjpVKLc748TzhoV/8R5E9V9T7NOH3/G5agsA6EcCQIDMxLDfZvgXoVVUXlzyh9PLypG4jO3mie6x7/6ngZPKuP/Jx5xd9kPcP6r34q/bcf9zfn5iWVnSPEGMocFRMTiSCJEiWBxNVL7FczVbnMzWot/+804VMZ1ud8kfzigrFmuxTzEMsBb9ZlVcvMa4T/O9i+1mEBgn6lEZ1AvaX29761Y51Om9in/jCEVq8Xm6/ppbqi3oX2ef8u2q16ryi+9FHHei4i6Ob83jTRwP4pjYSRxH27837a2b9tv9auE3ymrspgvP+lF5+Zo3v7S8rHX6HsY+xnG4FkOFRxN/vGgf/hz7Ee/BKecfW/ZP/NpHq5+2jvPdjuFxrGh/Te2tH6r/ACBnAkCAzJx72ncGwr9wxiWfGXbiFdtfPP+Yaiul6RtOSw898HDZ73T/9mGyUVly0tc/NiQIiwqx0USwuCqryGL+qRiu3NzvmAOs1qwIjNu0XuPQOatiO06Qm8798nerXj7i3zhCkWZQfMYJg2EB9KOoqquH04bpM9areoNirroItFp/ODljTJV0KyqGGcdUDM0/UFzwlR+Wl/H8zT+4XHrxFVVv0O+uvKHqtY5d2++8dbXVWRyHv/KFC6qt1h87IghtTuUQ/Rj2H5WRIY4FC2+/u+wDAP1HAAiQmfqkMURFR7eqiwiy4uQ2KjPixK8Ouu68ZWF5GUa6f5wc7n3A7tVWq0KsfShxiMeoK2riNmedfGHZX1WaJ7jtmsHA+497e9fbxnvVDBFjqOBkMHvus6se9Kf47jbDtKiAi2GwTXGbCL/j2FcfF1eF5nO/+d2vrXop/eSi4QHg10/7TtVL6cB37jvicS7cURznm3/oOexDg8Fju6iMjIrg+MNHt8WcAIDeJwAEyEzzpC5Wqx1Jp5Pb5hDY0e6/20ueW/Va7r938LmbYkXNWpxwdwoKV4aoeolhb833KFa5De3DeHfcZeRVeOMku2lVVjbWYnjeSG084vXEsO5mKBorlEK/aw+74pi03w6HpxM/dmb5mR/r8emS837R8XtWt25Dh7uJKQiaQ3Kbc//Nf8lOVa91jG9OXdA+/Lc+po3ktsb9wzbbb1H1OhutCjJWiu/0HtStV6ZJAIDJTAAIkJH2E86Zs8Y359J47/+83barei3tJ5W1qKRpDm37QnGi/XS7+rLry5Vum+1Fs940ZIGPqOKrhzcvXbqsvKxN32Ba1etslxcNnST/3rvur3qrTixKMlLrptt7FQvBNI02rBD6QQy1rauSaxGqRSVvfOb32+GwdMRBnyxXxx0p2I+wrtP3rG6xAm837d+3CCDf9tKjq5+27PO6wcA9KvpivsJac+qC5vDfGKbbabX10azoMOf4w1Gn96Buv7/6puqWAMCqIgAEyEj7SdzSJY9UvbFZc601q97YjOf2b2kMYYuTxWYFy9MhTujjeZqtKU6mL/jNF6utlKZOnVL1Wh5d9ljV62zjmc+sev1vtPcqwpIYAjjasELoF61Ffc4YtvJvLSrqYnXcBT+/trpmYrV/35pVyTFEOeYfbK/Qft0he1e9oVM9/OD8X1S9oVWDI1lv2rpVDwCYLASAAJlpnsw+tKS1sMdYtQc8ixaOPGyrveptpGGzEU42V5VtLrixssUJ9tHHHzokMF17nbWqXsujj4wcALZXtHSbK3FlitBgpLY84vMUYcmKVghBr4mArV75NwLuWO28WWUX/uX4c6recLFCbqfvWd022myD6pbjE4sPdTqeRGVfPfdoBIYxVDkqFJuBfbNqcCRbbjOr6rWMd7hyu6jw7vQe1G2vfUcflgwAPL0EgACZ2XnP7ateSt8792dVr7OYmynmvGqe/DWHxp19yrerXmftIdhow2b33n+PgRPYmFsunv/pEq8jFjipWzN8jOqe9grE9mqbmN9rJDHnVa25IMiqFKHBSK2b9vfqtIuPr37y9P87QS+IgDsCtvjDQHO6gvj8x1DgTiJE6/Q9q9tIFbPN71tUIjad/Imzqt5w7zzywKqX0qXfvqJczKMWf9joNK9rJ+3h5M3X31H1houQMRZKGalqe9aWm3R8D+rmDwgAsOoJAAEy01yYI4KubpOvx/UxN1PMefWyOW8dOMmdt+tgFV+c/HY76YuTwpOPObvaalWKjXaSFyfEnz3zg9VWcaLbuP/TLVb1bFZHHnHwp4bN79W+Omi3qph475pVN+0LgvS79jnS4nOyohVC0AsiyIo593abeVC56EcnzekKwninUhivCO1iKHIt5iLsdtxtVvhd9NVLh8wF2FwpeDRxLG4eD0/40L92ne8wVm6P42HMURhzFToWAEB/EgACZGb3fXYecmL3hvnvLav86pO7OHmL7cP2+2i5HeL29QIPr3/HK4ZUtMVJ3yEvOXpIFUwEYO/Y50ND5q365KmDFXYjiXCpDtqa918ZPn/2h6te67nbK20+ctJ7ql5LBKMRFjRD1Pb3Lt6r9sAgB0cef2jVa/ns0adWPehfDyx+aCC8j6Atqlvbg69zT/tO1Wt9v5sr8D5d2o+7nf5AESIsrI/v8Qean37n12U/jHc/m8fDeKyj3nz8kGNdDDGOVdObKxNHBaJqPgDoT6tVl73qqfhPDI/ITZyA/+mPd5crZsYwsttuWphe9toXlqtKxkl4p2EjcRJaO/DQV5Un0aOJX96aq23GCV09PKT5eGPRfM72+x7zxSM67nP84njdVa3QIO6/+XM2Xa7VP5v73a+i2qDS6987esMKHf+ieqR9RckQJ5jtoVtcF3NgNb9jEXK1rwAbOt0/RLVYzBNXi5PICB5D+89C8+dN3V5vHHPqk/ZOj1cby+2i6idO/GsxP1UMUatFhVDzhLfW7bXH0OKoLqxFoBAVc2NVv+bGMWJU9Wsb73OF+vWO5b2KY3hz1eSY8ywC5vFy/Mte3/y+FseeCPDbv8vxHQjNyt4Qw4EPO/rgst/tuDWS+vjQ/l3t9F7FH1li4ZFaVAXGHIXtOh2fY+7CGL7crn2f24937cfDWoSMEQo2tR8nxnPMCt2OM73G8Ypxyup8NY5D7fM/N3/HaYrjS/tUMN1u2zz3/cM1t5bX7bDzVmnOtrPTszbfpOsfFuopSJYsXlpeTpsxtbycOWvjtM32W4z6B4n6/mMV85XGY8b+/vKHgxXW9fW5c/zLnwBwFWj/Ba+TqI6JSaCboVrzF632E85uRvrFb7y/uDWfs/2+3X5JbZ5gxv1jgYDx/vIc2n9h7UcOqIzTCh//4vv/wbd/bthJXLuY763THxQiRIwqlE6hV1On41Hz2NPtpK/TiWe31zuRAWD8UnfgC9438LriRPesS08YcrwdS7AWgeAp5328nDesabyhXP2ax3NMrl/beJ8rjCcAjAqk/Z/7dwPvVbzmWDl5vL8EO/5lr69+X4tjQFS0tod97eLYcPr3Pj3weW//nWosxhMAhub3MnT6/Sf2P6qTm7odx0f6PTDEd/wnF18+6nGk03FyvL9HjnTs7iWOV4xTVuer7cegEPOUdirEGOvvcWP5XSXOJaMSur2gZLTjTPxessue23ctFhnvcao+Ro527MyV41/+BIAr2VjCv1r7L0rNA1ivBYAhVtBrPyls/p+IANABlXGZkONfnNwt+Pm16cZrb0t33rKw/D7GidycubPSHq94/qh/0axPDhfefvfA/eMPFLPnPrv8y+38vXbq+AtXs/o45hTs9AeC+iS8qdvJYbOauNvjhbHeLipofnD+4CIfb3//G4YFefEaFvzy2vIv1Xfe9F/lfIpxXF6/eL3x2mNBk06Vz3Gcv+DM71dbo6tfcxwvx6p+beN9rlD/kjzW9yqC4LNPvrDaSumVB7143FWAjn/Z68vf1+Kz/bsrbhj4HtTHxwPetk851177sa19VMVY1KMn2r+r3Y517c8xe+tZAxWITc3vbxjr43U7Sa6Pd/WolPjDURzrp284reuok/Ecs8JIx5le4njFOGUfAHY674zfD180a3DBpFrzfYjbxNQC8fvTWKzoHxo6/SFkPPcPAkDHv9wJAFei9iEb8YvVEZ/6XwMnnXGgiVUnm0PPmsOtmgewiQ4Ax/p4tU4H005/2W0PADs9x2Q5wDqgMk7Z/QGEycvxL3uOV2TD8Ypxyj4AjHPWU84/ttpq6TbVTPN9aK/8q899Y8hviCHBp3z8/xsSEDanXQjNc8742X4Hv7jsL126rFwEqX3KlrHev5tYIT0CSAGg41+uLAKyksRfQI7/wJeqrdZfOGKIb7PiJA4qccCKeVxqX29MRN3r4v8s4mAJAABA/4rz1RABXYzaaGquQB7BXru4fTP8i0KR+tw3Rp5Ei35cFz+rRaDX7Xxy1pablOfL0eK+cd7cGp48uIDSWO/frXUa2QE5EQCuJNdfc0tqzqP1oRPe1fUA8/5PvKMsYY4hte1/belFMWdDLeYbg0nsLUW7tGiR4m8UVwAAQL+J6RBqN19/R9VrueArPywvI7yLqQLa/e7KG6pey3s+ekjHc9+4LqYZaGpfWGQkMaVBLGTXFCPqgM4EgCtJ+2pKsWpRN3EgjPkLRpqXa6LF/F7x15JuLeaG6SYmbK3/8hJzxsRQZ5jE9i7a94oWX/rfF+19RRMGAgDQN563+3ZVL6VLL76i6rWmb6oLW2Je4Ksvu77sNz205OGq16okjOq6btrPi+tVgscqQsC6WjHEnNWdrMj5LuRCALiKrMxwbyyiXDrmOejWRpr0OgLLj/3T4BwJMdQ5hjwDKcZE/HPRhIEAAPSNqVOnDExNFav91ud3l/34t+VleN5u2w0Z5VaLBYVqsfDcSOK8uBngPbgcQdzOe25f9VLHQDKsyPku5EIAyISIhUrqA3f8n8C3zvpR2QcGNMPAPxftmOo6AADoOfvsv3vVS+mOqrLuoq/GbDetuf8mqqilGRLGSuTjNX3GelUPGIkAcCWZOau3Vw2K+Rtild5urX1uhk4+eeoRVS+lk/7hjGGTxQIDZhbtk0WLqkBhIAAAPac5PDcW/ohhsjHlU3j1W15aXnYye+vBQO+B+5ZUvbEZrWKwk+aw310a1YBNE3G+C/1OALiSbP6cTateSyydPpJrF9y0UgO0PV7x/LTvG/bq2mJOwtHEakzNVZw+e/SpQw7+DHhKy7adU7Txag8DTy7a4BcJAABWgajwq1f5jYU/bvz328p+mL/XTlVvuFhxtxarCI80PVT8rDlsN85LxyPu/+OLLq+2Upq3a+fz1ok434V+JwBcSWJy0uYS5WeffGHVGy4W0Xj3/h9LL5vz1nTix87sq0q6I48/tOql8kDcbRJWAAAAetub3/3a8jKmeYq53kNM/RTnt93suMvQMO0nFw8GdO0W/PzaIfMIrjdt3ao3Nid/4qyq17LNvC2rHtBOALgSvf+4t1e9Vjh2xonnDftrSFQG1gfWcOdN/9VzC4aMJP6P4PC/f1O11XqdDLOalm07pGjjtahoxxZtx6JFqfD7i+aLAwDAKrN06bLyctvnzikvQx3UHfC2fcrLbmLV37pyMHzivaeUhS2x2m5TjHprnvtGsBhzy49FDEeOx4wFSmpxf5V80F2csPayGFKXrlx0frmRg0NecvTAvAkhqgJjnoIYKhtl1c2/fsTPLvjNFwcCwN1mHlRehji4jTY/wnGnHVkeZGNVo9qFC740sAz7eB8vyqkPPqw1N0Lzvu3/PhFq7v/cvxvyWkLMrRDl1e1G2secNN6zXv/esfzeUrSxDAOO0O/Uon2raNfFFR1kd/wbSVQ6/+mPd6elDy0r55vp9oePOL7ce9f91VZKG222QbkS+fJo/yV0PMed+GPNbUWL+V03nvnM8rqx7kv8srto4T1pzrazyxX2Qo7HvCbHv+w5XnXgeNWfHK8Yp6yOf8e8+wsDBRzNc7f2c9hu55TN96H9HK8WU0bFue+1V95QDg9uaj8PbD5283w15hVsv28Y6/27qc932/c9wszpG06rtoaL+QNzCB4d//InAFzJ4i8Vx777nzoesNqNdAAbi3jfRgrXxvt4cbCOUDE079vp3+eHF/6y/EtPkwDQAXUSGCkAjC/9l4v2jaLdG1eMIvsT6jgefuFjZ5bzvrT/wSB+0XrRq+anfV63+5AhJhN1vIiT2phqoemSP5wx4nCWOOn/7td/lr7yhQuG7W+IXyxjMaSYD7Vd7Pcl5/1i2B96avF6P3naB0Z8/n7m+Jc9xyvHq2w4XjFOkyIAPO+M75eLPIYoUrnkD6eX/TDSeWEcvz5y6Oc7Hkua4jE/9k/vHVb913zskcQx7fNnf3jYMXas96/V57vtx+/RdDvP7TeOf/kzBHgli1+WTjn/2PIgEb9AdRJDaPs9BNt7/z3KAzFMchH6/e+ixZc5hvh+sWhjCf+yFyfT8dfk+CWz0y+F8UeS+EUzbhO3nWiXXnxF1Rt06beHX9cUCxvFPnX7JTb+Mv62lx5dDkdpiiqgw/b7aDr9H7/R9b7xevfb4bDyjydAb3G8GsrxCiafPV8+uDDHge/ct+qNLqriLv73/1ue33Y6N4zr4mdxm7EO/a3FfSOwO/FrH01nXXpClgUkMNFUAPaA+GXx0UceS9M3mNZX8/0xPv6iMilEBWCshHNS0a4q2oqEfdke/+KvqnGCWZ9cxl9945fJbXdqzTHzg/N/MWT+0PhjSfzhJExERU2c4L5o1uBcpbX2v2g3tT/vUZ8+rPxlOIbRXX/NLemME74xpLL7qz87caCypr16J35Rjfl01p6yVrr5+jvSCR/61yHDan5629ey+/8Cx7/sOV5VHK/6n+MV4zQpzlcnUhyjgsCu9zj+5U8FYA+IqsA4AAr/oO+dW7SYFTlmI1bp10FdXdI8mT7n5yemw44+uPzLb7QYehEnyrU4UY2hJxMlVpurHXT4fgPV2LFPMVdWJ+d++btVr3WCH/PDxHE75tCKv25/7qwPVz9tDR+JucFqccJci79yx2uM434c8+O+MQwvxHsR9425xYBVz/HK8QqYeHE8Ev7BqiEABGClieqT+mQ6fPbMD5Ynl+3iF8OYKiFOeKMCJebWmihfP+07VS+lffbfPb353a+ttlL6xSULqt5Q02esV/VaJ/hRJdMUJ8fx1/9oEQjEiXInrTm1hg4RjMqbuF9U88R9O83JBax8jleOVwCQEwEgACvN1b8augBStxPPEJMpH338oQMVKBMhJsZvDn2LFTyft9t21VYq572Kqp92+x384qrXEkPkYv6rscz39aET3lX1WlU7MU9YnJDHvgC9y/HK8WoFrFG0PYp2ctFidAAArHICQABWmjtvWVj1WkPPVrZYFbMWzx+VMNHqYXUhqn7aRYVP+/7GSucxEf5+OxxeTqTfXmVTi9AghsvV4qQ6TshfNuet5X3POPG8rkP5gFXH8crxapymFm2/okXg93jRLitaa8w0APQAASAAk8ZFX7206qV04KGvqnppyLC6TituhiOPP7ScE6t5chziBPn80y8pT5LjBPmKS6+pfjLolPM+Xg4PbBf3jSqeWI0zKm2cWAM1x6u+UId+8Y/1cNG+V7S/KRoA9BwBIAArzeytZ1W9lS9WnWuuXjl1vSnlddGmTlunujaVJ8edhrvFsL6Y/P/if/+/6bSLjy9Prp8zd+j8V3GCfPwHvjRsWF7MkxXDA2PFzJgjLE6u2+8b+3bse06ptoBVzfHK8aqLjYoWq/43Q7+9iwYAPU0ACMBKs+1Oc6peSj++6PKqt3Jcct4vql5LVLG8Yf57yxbVME2/u/KGqjdcvZJmnFzHiqC/WviNIUPy4qT6Jxd3fm0xfC/mCIuT67jvJX84Y0iFTpxUxwk+sOo5XjleNUTo976i/b5o8aLPKZrQD4C+IgAEYKXZcpuhFTXd5qEKMTStnnNqIk4yY0XLsWquvBmiwib2odP+xgn2SV//2JCT6rNP+XbVG7xvp+FyUaUTJ9bNk+pzv/zdqgesSo5XQ03C49UWRWuGfv9ctME3bnye0rJtAH1DAAjAShOT0zeHkp3woX9NnVamjOuOfutnyuqUmHPq1M9EscXyixPheKzaJ750xLB21KcPq36aypU36/2KE/uYAL+uvOk0Z1acVDfNmdsKDmKy/fq+UcHT6bWuN33dqteyw85bVT1gVXK8mvTHq1hy+YCiLW/oBwA9ZbXqsleVf1W5ctH55Qb0s91mHlT1ev57R2/I9vgX1SVxglmLapJ3Hnlget7u26WlDy0rJ7WPea1q8fOYxypOWtvvG/Nazdpyk2pruB13mVuexMeJbf2YUflyyvnHlv12MbF9Pe9WnGAffNiryoqYOCmuNff3WZtvkh64f0lZBdPc5wsXfKl83qiiiRPpWtz3/ce9Pc3fa6e09pS10p/+eHc6++QLhwwvjHm3YuhdThz/sud4VXG86n8djlex0MeLi7Zv0ZZnVd9/K1rMGUienK+SDb+v5U8ACCuJAyrjlPXxL4bJRaXMWLTmnVq/7LefUI8mKmX23n+P9KJZb6quSeWk9jGvVSfnnfH9dNI/nFH2o/InhruFqMj5yKGfH1KV083LD9gjHXfakdVWSj+88JfpE+8d22T5ERDEXF25maDj3xpFe0HR3li0ehJ+eoPjVcXxqv+NcrxqHofGGgYKAPPmfJVsOF/NnyHAAKx0cdL41Z+dOGxlyab4WdymPpleXgt+fm3Va3nebjGqq7N9Xrd71WtNcF/PgxWT6F/wmy+Wq2F2E9UycUL8kRPfU13Tsu8b9ipDgeacW+3itUYFzzve/4bqGipReRNv+rlFe7xolxVteSpwYLk5Xg01yY9XTxQtSiDfX7Q1i7Zn0SzfDkBfUAEIK4m/qDBOk+b4F/NM3X/vA+m26uR1vWnrlpPvx5C0dk888WS69677q63RTd9gWnp02WPp0Uceq65pzes1kqjaqcX924e3xf7G492z6C9p0cLWbedsOzttVbTR1I99+80L00NLHi77MbxuRUODXjfO41893O6oonVbZVNFTW9xvHK8ysZy/r42UmWg41XenK+SDeer+RMAwkrigMo4Of6RjTEc/2JI78uLdmjRuoV+TU6oe4vjFdmYgN/X2sNAx6u8Of6RDeer+TMEGABYFSL0e1/Rfl+0KDWKpVPHEv4B9LL2YcJxCQCrnAAQAFhZtihaM/T756J1n2xsZFF1ofVGAzqLMPDeVhcAVi0BIACwssSKBgcUbXlDPwAAYDkIAAGAleWSou1TtHWL9uqircjqmTE/jdYbDQCAHicABABWtqVFizCwniNrz6KtSBgIAACMQAAIAKxK7RPmCwMBAGCCCQABgF4hDAQAgKeBABAA6EXCQAAAmCACQACg17WHgXEJAACMkQAQAOgnEQbe2+oCAABjIQAEAAAAgIwJAAEAAAAgYwJAAAAAAMiYABAAAAAAMiYABAAAAICMCQABAAAAIGMCQAAAAADImAAQAAAAADImAAQAAACAjAkAAQAAACBjAkAAAAAAyJgAEAAAAAAyJgAEAAAAgIwJAAEAAAAgYwJAAAAAAMiYABAAAAAAMiYABAAAAICMCQABAAAAIGMCQAAAAADImAAQAAAAADImAAQAAACAjAkAAQAAACBjAkAAAAAAyJgAEAAAAAAyJgAEAAAAgIwJAAEAAAAgYwJAAAAAAMiYABAAAAAAMiYABAAAAICMCQABAAAAIGMCQAAAAADImAAQAAAAADImAAQAAACAjAkAAQAAACBjAkAAAAAAyJgAEAAAAAAyJgAEAAAAgIwJAAEAAAAgYwJAAAAAAMiYABAAAAAAMiYABAAAAICMCQABAAAAIGMCQAAAAADImAAQAAAAADImAAQAAACAjAkAAQAAACBjAkAAAAAAyJgAEAAAAAAyJgAEAAAAgIwJAAEAAAAgYwJAAAAAAMiYABAAAAAAMiYABAAAAICMCQABAAAAIGMCQAAAAADImAAQAAAAADImAAQAAACAjAkAAQAAACBjAkAAAAAAyJgAEAAAAAAyJgAEAAAAgIwJAAEAAAAgYwJAAAAAAMiYABAAAAAAMiYABAAAAICMCQABAAAAIGMCQAAAAADImAAQAAAAADImAAQAAACAjAkAAQAAACBjAkAAAAAAyJgAEAAAAAAyJgAEAAAAgIwJAAEAAAAgYwJAAAAAAMiYABAAAAAAMiYABAAAAICMCQABAAAAIGMCQAAAAADImAAQAAAAADImAAQAAACAjAkAAQAAACBjAkAAAAAAyJgAEAAAAAAyJgAEAAAAgIwJAAEAAAAgYwJAAAAAAMiYABAAAAAAMiYABAAAAICMCQABAAAAIGMCQAAAAADImAAQAAAAADImAAQAAACAjAkAAQAAACBjAkAAAAAAyJgAEAAAAAAyJgAEAAAAgIwJAAEAAAAgYwJAAAAAAMiYABAAAAAAMiYABAAAAICMCQABAAAAIGMCQAAAAADImAAQAAAAADImAAQAAACAjAkAAQAAACBjAkAAAAAAyJgAEAAAAAAyJgAEAAAAgIwJAAEAAAAgYwJAAAAAAMiYABAAAAAAMiYABAAAAICMCQABAAAAIGMCQAAAAADImAAQAAAAADImAAQAAACAjAkAAQAAACBjAkAAAAAAyJgAEAAAAAAyJgAEAAAAgIwJAAEAAAAgYwJAAAAAAMiYABAAAAAAMiYABAAAAICMCQABAAAAIGMCQAAAAADImAAQAAAAADImAAQAAACAjK1WXfaqp6pLyEmvf+/oDY5/5MjxL0+OV+TI8YqxcPwjR45/mVIBCAAAAAAAAACr0B5VA5hsotJStSWsIBWAAADQ+95YNQAAAAAgQ3+uGsBkowIQAACA7M0rWn0CHH2AyUQACBPAEGAAAOhtr68uQ7MPAAAAAGQghv7WFTCGAQOTjQpAAAAAstYc/ls3w4CByaQ+9gErwBBgAADoXZ2G/BoGDAAAAACZaA7/rZthwMBkUh/7AAAAIDsbFa0Z/DVb/AxgMqiPe8AKMAQYAAB605uqy05G+hkAAAAA0Ad+X7Rm1V+zxc8AJoP6uAcAAABZGWn4b90MAwYmg/qYB6wAQ4ABAKD3jGWIr2HAAAAAANCnRhr+WzfDgIHJoD7mAQAAQDbGMvy3boYBA7mrj3fACjAEGAAAesuu1eVYjOe2AAAAAEAPuLRozSq/kVrcFiBn9fEOWAGrVZcAAEBvOLe6bFqzaI+3usO8pboEyFEd/skvAAAAyJoKGGCycvyDCWAOQAAAAADImAAQAAAAADImAAQAAACAjAkAAQAAACBjAkAAAAAAyJgAEAAAAAAyJgAEAAAAgIwJAAEAAAAgYwJAAAAAAMiYABAAAAAAMiYABAAAAICMCQABAAAAIGMCQAAAAADImAAQAAAAADImAAQAAACAjAkAAQAAACBjAkAAAAAAyJgAEAAAAAAytlp1CQAA9K6nqku/vwOTTS7Hv/p1kLee/ZyqAAQAAACAjPkLIgAA9D4VgMBklVUF4G/mvbDcIC8vuO7XVU8FIAAAAACwCggAAQAAACBjAkAAAAAAyJgAEAAAAAAyJgAEAAAAgIwJAAEAAAAgYwJAAAAAAMiYABAAAAAAMiYABAAAAICMCQABAAAAIGMCQAAAAADImAAQAAAAADImAAQAAACAjAkAAQAAACBjAkAAAAAAyJgAEAAAAAAyJgAEAABgIqxRNQB6zGrVJQAA0Lueqi79/s5oIoCb1eqW1ivavFZ3wDOLtnurO8zfVJeryr9Vl+2uKNpfWt0B1xXtoVa3tLBoT7S6ZCSX41/5On4z74XlBnl5wXW/rnq9+zn1CwQAAPQ+AeDktVHRpra6Q0K711SXYVWHdr2qGSZ+t7oMESaGpUW7t9WlhwkA6XkCQAAAYCIIAPNUh3vbFW160bYq2tyibVy0vYs2IV5+wB5Vb9Aer3h+1Rtq5qyN08Yzo0Bw5btn0V/SooX3VFtDXf6j31a9QT++6PKqNyF+UrR48puKdmvRHijaDUUTEq56AkB6ngAQAACYCALA/rVF0ephuHXA99KizSzauOy657w0fcNpZX/ernPTtBmtwsD20G7TzSM/nHz+/MfB8LAZJi5ZvDRdd1Xkeik9cN+SdNVlMXJ43BYV7WdFqwPCevjxHUXj6SUApOcJAAEAgIkgAOxt9bx7Ucn3nKLFUN0xh3wzNpyedtlz+7T+huunHXaOjDClOdvOTlOnTklrr7NW8fP1y+uYWIvvezA9+shjaenSZem2G+8sr/vDNbemB4vrr77s+uLnUQQ4JnU4GEOL/7NoUTloPsKJIwCk5wkAAQCAiSAA7B1RdhchX1T0xTx8Ywr6YhhuHfCtN23dtOU2s9L0DaalKVPXrm5BL1q29NH0wP1L0u03L0wPLXl4ICAc4/DjOhiM+QejYjDCwRhSzPgIAOl5AkAAAGAiCABXnRjCGxV9o4Z9dSVfDM991uxNypBvo802SGussXp1C3LyxBNPpnvvur8MB/90593lMOMxVA42Q8GoGDSEeHQCQHqeABAAAJgIAsCVI4byblu0FxftgKJ1XYgj5uPbabft0rY7zRH0MUQzGLzx2tvStVfeMNq8g7EAyUVF+0XRbiyaocNDCQDpeQJAAABgIggAnz6xEu+uRXtr0f4mrmj3nLmz08te+8KBsG+yLrLBiolFSupQ8Kff+XX6z5ta8w528G9F+1rRriqaFYgFgPQBASAAADARBIATK0K/NxXtb4sWc/kNEdV9L3rV/PS83bdLW2w9S2UfT4uoFLzjloXpd1fckH71/QXdqgTjyi8X7RtFm6xhoACQnicABAAAJoIAcMXF4h3vLNqw0C/m7jvwnfumXV40L22/89YCP1aJCASvv+aWdPWvrksXfOWHneYSrMPArxRtMi0mIgBcBe7678fKy43XXCut4f95RiUABAAAJoIAcPlF2Hd40Y4otyoxrPeAt+2T9nz58w3ppSfFkOHLfvzbdNFXL+00XPiUop1etBEnF8zEpAsAr314STr//rurrZZ566yX3rjRzLT48cfTSXcNXztm87WnpM3/aq00b+q0tFlx2cmJxf0eKO4f9pw2Pe07I4qhh4vneOVNvy373/rr5w083q3LlqafLVmcLvjLorTrOuuX101fc8106EbPSjOKy1qn/Q/xnOuuvmbaudjHKas/o7q2++1DPP4+056Zti/u0wwim/c5arMtyudvXhfvx7s2mVX2a833rr5PU7y+2x59JF225IF022PL0vPXnZZeuO70tN2UqcNu204ACAAATAQB4PjtUbRTizZQ7ReVfu888sC0z+t2L/qtk1foB4vvezBd+u0r0le+cEF7ZWAEgO8p2uXlVp4mXQD4w8X3pmMW3lZttbxi2gbpU7O3LivzXv8fv6uu7Sxu+55NNx8SBDZDvTBjjTXSD7bdpdoaKoK0v739hrJf7+/H77wl/WjJ/WW/k+NmzRkIFDvtf7vDN541ENCN5faxvx9/1lZpj2nTy+3mfeqQsv1xmuFlaL53zZ89UfzLnPznO9I3749Fujs7euYWZQDbTT8EgIORKwAAQP/bomiXFu2yopXhX8zpd9rFx6eL//3/poMPe5Xwj74Tn9n47MZnOD7L8ZmuRCc+6/GZj88+GYgqvgjUIiQbyZy11ilv98YNZpahXy2Cun+778/VVsv5fxlaYbf4iSfKoK+T/1j2SHm567rTystlT/7PQPgX1315y+3KAO2k2XPL60IEbxEytovXEOFZ7F/sb+30exaWFXft4vbxmqLF/er7xP7+y6I/lv2x+uAd/1H1uovw7wN33DAk/It9rd/X2omL7ui4v/1EAAgAAORgjaIdU7Tbi7Z3XPHyA/ZIFy74Ujrl/GPTTvPnmtuPvhef4fgsx2c6PtvxGa/EZz4++/EdiO8CfSwq06Ka7tVdhujW5qw1pbzd0ZttUVYHNgO5CLQi3KrFsN0QoVYdql265C/lZbvrHnmovNxpnVYA+LX77iovw7s2mpV2Wrc1zDiq8eI5IzCL4G7ZU/9T3WpQvIaonIv9O3vrHQdCxRDDidvF7eM1RYv7nbvNjgPh5m2PPTKuEC5uf/mSYXNpDvGTB+5NV1VBaDzPD+Y+v9zX+n09Z6uBsL3j/vYTASAAANDv4iz5B0X7ZGzE/H5f/dmJ6bjTjjS/H9mKz3Z8xuOzHp/5SnwH4rswcnJEliKQa1bZ3fN4ayGPCM2igi7EfHoHzGgdF9tDwlpd7bfdlHXLy/lTB0O7D//XzUMq/eI5IzCL4bzN4badxBx+H33WnGorpWsf6VyB2C7mP6wtffLJqtdds9rwU3+6teNrrP2hESi+Y+PNhs31t9WUqWUoePkOLxw2p2C/EQACAAD9LFb3/X3Ryqq/oz59WDrn5yemrbYdCEQga/FZj898fPYr8V2I70R8N5hE/vXuhWXVW60O5L69+N7yMsRiGi+fPjhc+DcPDa2Qi+G+tS3XnlJeRsVfcyhuzCX4vttvKJ9vPBV5EcQdetvgujV1hWE3cfsYpnzmfQura1r7Pxaf3+Kvy8vY36jy6+bHD95X9VLaYu3OX5kIBXNYCVkACAAA9KsY6vjtos2MBT6iEirmSYPJKD778R2I70IhJi+L74bhwBm76pEHy8U5okUgF/Pq1er56yJEq+e3i+siyIpAqw70/u3+weG94U//vazqpbTxmoMVfcc9e86Q4bsxbDae75Bbr0uvvPHqrkNtP/On2wb28e23/H6gEjF0GuIci3TEghrR9vjDr8vFSOr7xJyAYwniooIxws966HDMT9gMNpvqx47X1nzsqHKs97vZOs1z2C8EgAAAQL96Y9HKyr/PnvlBVX9MevEdiO9CJb4b8R0hUxFeRdgVrZ7HLsR8fO/ftLUmzPVLB69/4PHHy5Vyoz1zzVY2HPdrhmO3PdqqIIyAsBmIxVDYL265Xfr5dvMHFsiIlXlD7MdRd97UcahtPH69j3V1YtwvFhIZbchwUyw6MtIqvJ18tNjP2pfuHnkBkdjP5v7HfIb1fjdbp3kO+4UAEAAA6FeHxn8O//s3lQsjAKn8LsR3olJ+R8hThHT1irnRIlSL+epirro6vDv//sHVfyPAimq4aM3A8JfF9bXLqkq+5zeq/ZqmrP6MgQUyvjt3lyFVgZ2G2jZX9Y0Wi2rE/WJYcSexqEiEfdHqCr5w+6ODlYljFfsaVYMhqiCva4ShteZz3PHo4HDmqH6s96O5uEo/EwACAAD9qqz+23Pf55cbQEvjOxHfEcOA+0AML42htDH09a7/bi3ecW91GZoLYdTqVYDrFqFacxGLqOyL0C9E1V2EXc1WV/Cdde+fy8sQw4rDDlNa8+HFY8S+veXm35fDjJsiZGwu6tFcUKPWXNU3WlQSjjSMN+YdjMrAaEdt1grvQizm0W0Y70jesOFgpeIXFt1ZXjY139dY5beuAox9rPdj3WfkEZ0JAAEAgL62+J7Oc0/BpPXUkISlv5cunSQW/8/jA/PRxUIZsfjFv947OKdfc+GOsbqmUfH28WdtVa7W22wHPrM1pDaG5sbcdhF+1fswr1psI6roIhSM20TV4Il33VEu/BG3jaAy5vir/c2Gm1a9iRFhZlQNhtivzywcfK6xiiDvyJmt6SHq19bUDAhjTsPX3HT1wOIm37x3URl8xjyEORAAAgAAfe3XP7+26gHhsh9dXfXoF5+atfVAEBVBVYRO9TDdGOrbrOwbq39ZNDjv3QvWKxeHGeKl02ZUvZTO/8vd6Z7HBysOZ6w++Hxnzpk3sGhIDKWNhT9igY5YsKPex6goHM+cfmO19/SNBp47qhkjGB2vqDysH6NdBISfe/Y2Q977enGTExfdMWTewhgK/HS8xpVFAAgAAPS1b3z5e+naBTdVWzC5xXfh9H/8RrVFv4iA71vb7Dywem+I0Ckq4M7dZsfqmrGLir46vKpX/20Xw3Hr4OuCvwzOkRfXReVfLUKvs7fesZxPrznnX4jtmHvw2M23rq6ZWLHfsQJx7cP/dXPHxUZG03yMdjF0un7vm0FhvA8RbMbrjp/vMW14iNpPOnwEAACAHlOf7vj9faiB08AZG05Pp5z3cSsBM6ndeuOd6YiDP5UW3zdkWPyWRbuj1e1LuRz/ytfxm3kvLDd6Ucyxt/jJx9OU1Z4xporDCOI6BYs5GO9ri7kbKz37jqgABAAA+tr0DaaVgcfbXnp0Ou+M71fXwuQSn/34DsR3IQJxGK+o+otqv7EON841/As5vjYBIAAA0Ne+cO4/pF33nFf2T/qHM9IhLzm6rISCySA+6/GZj89+iO/COT8/sewD1ASAAABAX1t/xnrppK9/LB3+928qt//zpjvLSqhj3v2F9Oc/3lNeB7mJz3Z8xuOzHp/5EN+B+C7M2HD9chuglnHBJgAAZCOXObAmWvm+XLjgS2nTzTcur4hQ5LNHnZquuuy6cjtERdRhH3pT2n7nrdMaa6xeXQv954knnkzXX3NLOuOEbwz7jH/kpPcMfA/CbjMPqnrmAOwR5evo5TkAWX79MAegXyAAAKD3CQA7GxYA1mIl1BM+9K8DlVEh5kV755EHpn1et7sKKfrK4vseTJd++4r0lS9cMGSBj+fMnZ0+dMK70k7z51bXDBIA9hwBYMYEgAAAwEQQAHbWNQCsxfxo3z7nJ+n80y+prmmJ4OSAt+2T9nz587veF1alqGa97Me/TRd99dIhQXY46PD90usO2XvEVa8FgD1HAJgxASAAADARBICdjRoA1pYtfTR99+s/6ximRGXgge/cN+3yonmGCbPK1MN7r/7VdemCr/xwSKVfqEPr17z5pWnK1LWra7sTAPYcAWDGBIAAAMBEEAB2NuYAsKkeTtkpDAwxn9qLXjU/PW/37dIWW88SCPK0iMDvjlsWpt9dcUP61fcXDJnTr1aHfsszbF0A2HN6NgC8678fq3otU1Z7Rpqx5prV1uieKF7ZPY8PPsZmf7VW1Utp2ZP/kxY/+Xi1NbIZq6+Zpqw+uFZtc782XnOttEYPfwIEgAAAwEQQAHa2XAFgU4SBN/77bekH5/8i/fiiy6trh4oQ5mWvfWHadqc5acttZhkyzHKJIb2337ww3Xjtbemn3/l1x/A5vPyAPdIrD3px2va5c1ZorkoBYM/p2QCwEV4NmLHGGmnXddZPe06bnvaatsGQYK7dDxffm45ZeFu1ldK3/vp5AyFg+89GctysOWnfGRuV/VuXLU2H3DoYip80e27ao9iXXiUABAAAJoIAsLMVDgCbxlKRVYsqwZ12224gFNxosw1UClKKz9G9d90/EPZde+UNo36Wno6KUwFgz+mrALApwsAvbrFt2mrK1Oqaod5y8+/TbY89Um2ldPjGs9K7NplV9pc3APzXuxem0+9ZWPbDrutOS1/ccrtqq/cIAAEAgIkgAOxsQgPATqJq6/dX35Qu/9Fv09WXXT9sXrammEtwlz23T/N2nZueNXsTwWDmmkHfn+68O1131U1j/ozs8Yrnpx13mfu0VpMKAHtOXwSAUb0XHnnyifSzJYuHhHDnbDVvWAi4+PHH0ytv+m3Zn7PWOmUQGIHhD7bdpbyuXTMQbAZ+TTGkeI8/tPapfszwg7nPH9fQ5JVJAAgAAEwEAWBnT3sA2C4WE/nTH+9Ot91455hCwVoM61x/w/XTDjtvldabtm4ZDk7fYNqYFnNg1Yl/7wfuX1KGfA8teTj94Zpb04P3Pdh1uHhTM+ybs+3s9KzNN1mp/94CwJ7TFwFg+/41A7tXTNsgfWr21mW/1qzUi/Dw9f/xu7L/5S23SzutO63sN40lALz24SXpb2+/oew3H/PomVukN240s+z3GgEgAAAwEQSAna30ALCT5akEa6qDojogDBEYTZ06Ja29zlorNA8c3cX8j48+8lhaunRZGeiGOuBbnn+/Xqv8FAD2nL4MAENziG/7z19549Vp8RNPpDduMDMdvdkWA7ett9uNJQD8+J23pB8tub+s/jt3mx3TiXfdkb55/6KB7V4kAAQAACaCALCznggARxJDiOuAaeHtd6c7b1k4rnCpKeaKm75hq6ImwqZpM1pD8WbO2jhtPPOZZT/06nvxdIv3unbPor+kRQtb20sWLy1D2fDAfUtGnI+vmzrkm731rDRry00GAtpefq8FgD2nbwPAOoALzWG4zYU66oq/b967KJ24qPVxu3yHFw5buXe0ADBWDX7JDQvKfl3x16wI7DQMuRcIAAEAgIkgAOys5wPAkdQVaPXw0jogXN6QqpsYftwuhqV20h4mrkzN0K5dDLduN5ZhuGNVh6t1wFcP0+7nCkwBYM/p2wCwfZhvvcJvMxisw77mnICdVu4dLQC8fMkD6ag7W4F9HTY25wRsLjDSSwSAAADARBAAdtbXAeBY1CFhiMVIas1AbCKDsJw0g89m4BmLb4Tch1cLAHtO3waA9ZDc8PPt5qcpqz9jSCgXi37sus7gd6m+baeVe0cLAJvDjWPOwdpVjzxYDjWO5/ru3F2GVRauagJAAABgIggAO8s+AByvej7CWnN+u1pzSGy7VR0mdqpWDM0hz7V6GG7NistDCQB7Tl8GgM2KvlD/vDksdyR1YFgbKQBsf65uui0wsioJAAEAgIkgAOxMANhDInwMQrjeIADsOX0XAMYcf++748ay8i40A7v33X5DuurhJWU/5uVbZ/U1yn64/dFlA8N421fuHSkAbM4fGD+bN3Uw5HvkyScG5hvstsDIqtQPAeBgDAsAAADLKYI/4R/0txjuGy1W943ArQ7/YgXevae3wrpYqKMO/2KYbyzKEfMC1i3m/YuhuuGixZ3n9ezkzPta8wzGfSMYbD5mPEc8V4h5B2MfGB8BIAAAAADl/H3R6uAvRMXd2VvvODDv3i+rOf7C32ywWdUb6sBntqr+Yj6/u/67NY/pSKLasH7O+r7tms91zdJWAMnYGUIAAAC9zxDgzgwBhi4MAe45PTsEOIbldjJn7XXSBmv8VbkSb1PM/7fo8Vaot9e0DYbM8VeL+fwWPPxA2Y+hvFHFFyIMvK4K77pdP3/d6cOeM0TVXx0+zlxzrZ6aB9AcgAAAwEQQAHYmAIQuBIA9p2cDQFacOQABAAAAgFVKAAgAAAAAGRMAAgAAAEDGBIAAAAAAkDEBIAAAAABkTAAIAAAAABkTAAIAAABAxgSAAAAAAJAxASAAAAAAZEwACAAAAAAZEwACAAAAQMYEgAAAAACQMQEgAAAAAGRMAAgAAAAAGRMAAgAAAEDGBIAAAAAAkDEBIAAAAABkTAAIAAAAABkTAAIAAABAxgSAAAAAAJAxASAAAAAAZEwACAAAAAAZEwACAAAAQMYEgAAAAACQMQEgAAAAAGRMAAgAAAAAGRMAAgAAAEDGBIAAAAAAkDEBIAAAAABkTAAIAAAAABkTAAIAAABAxgSAAAAAAJAxASAAAAAAZGy16hIAAOhdT1WXfn8fqnxfLlzwpbTp5huXVwAtu808qOqlLYt2R6vbl3I5/tWvg7z17OdUBSAAAAAAZEwACAAAAPD0isowLf/WswSAAAAAAJAxASAAAAAAZEwACAAAAAAZEwACAAAAQMYEgAAAAACQMQEgAAAAAGRMAAgAAAAAGRMAAgAAAEDGBIAAAAAAkDEBIAAAAABkTAAIAAAAABkTAAIAAABAxgSAAADAyvSWol1atP2KtlFcAfSseUU7pmh/LtoWcQXQnwSAAADAyrZ30b5XtHuK9vuiva9owkBY9dYo2h5FO7loEfrF9/OTRZtZNKCPCQABAIBVKSqM/rlowkBYNZqh3+NFu6xoRxRN6AcZEQACAAC9ohkGRvVRDD2M64CJ1S30AzIlAAQAAHpRVB/F0MOoChQGwooT+sEkJgAEAID+8VQG7ZyijVd7GBgBRgQZwOh2KdpEhH63F63Td/rpbsAEEAACAAAAQMYEgAAA0PtWy6gdUrTxWlS0Y4u2Y9E2Ldr7i3Z50YDRXV20+M6sWbQ9i3ZK0ZbHlkXr9J1eWQ1YAQJAAACgF7WHfscV7bqiAcvniaJFcD4RYSDQZwSAAABAr4iA738XbeOiCf3g6SMMhElGAAgAAKxKzdAvqv2+WLR7iwasHN3CwKjCBTIhAAQAAFa2nxTt1UUT+kFvaYaBUYUb388Yii8MhD4nAAQAAFamc4u2T9EuKZrQD3pbVOjGUPwIA++IK4D+JAAEAAAAgIwJAAEAAJ5Gy5Y+mv78x3uGtLiOp5/3HKBlteoSAACg3zwV/7lwwZfSppvHdIK9abeZB1W9oWZsOD3tfcDuaYedt0o77jJ3zK/hhxf+Mn3ivYMLtsbjXPKH06utlmPe/YX044tiKrexe/kBe6TjTjuy2krpiSeeTC+a9aZqq+W0i49PO82fW20N1b5fncS+HvjOfdOL95ufttp2dnVtd0cc9Ml01WWDC0EfdPh+6ejjD622Olt834Pp0m9fkS766qXpP2+6s7p2UDzG+z/xjrTGGqtX17SCwjfMf2+1NTZ99LnbsmiG78IkpwIQAABgFVh83wPp/NMvKUOzCJ9O/NiZZeg2mrNP+XbVa4nHuXbBTdXWxFnw82ur3qAzTvhG1Vs+sa+n/+M30tteenQ648TzWld2ERV7zfAvxPs10nsUP9tvh8PSSf9wRsfwL8Rj7P/cv0u33tj55wA5UgEIAAD0q76rAHzO3NlpztxZZf+B+5YMC7h23XNe+uRpH0gzNly/umaoqG6LgKtde2XceWd8P1131dBQ8OrLri8DuBCVeLvsuX3Zr83bdW46+LBXVVvDq+9qP73ta2nK1LWrrUHtFYCf+NIRVa/l8h/9dkhVYuzDxf/+f4dU4jV1qyg88WsfTbvvs3O1NVT7fY769GHpebtvV/Z/d8UNZTBYaz5/ewVg/DtM33BatdXZkcX73e3fqReoAASaBIAAAEC/6rsAMEKxfd+wV7XVqnI797TvlFVxtZGCsaiaq297+N+/acj9frXwG13DtNAcFtw+3Ldd7NfL5ry12moFjFE5F9pfQ609fLty0flVb1B70NbtscIhLzl6oIqv+VojnDvl/GPLflNU/0VlXx1yRvjXDDRD+z7Wn532/er1z9RYCACBJkOAAQAAVpGopDvs6IPLgKsWAVan4bfhgq/8sOqlch69COZq3e6zPL779Z9VvVb497pD9q62hg9BHo+NNtug6o0sKh2bQ3jjPYpgNERVYqcFPR5/7PGB8C/86vsLhg0X3nv/PcpwL8LSCCj7PeQDGCsBIAAAwCoWAVfTD87/RdUbFHPWNYfwxiIa++y/e7kdvn7ad6reiosFNGrxHPFcdQAXwVwEdOMVYdxPLh66MMle+86vekNdeNaPql4rgAyxeEitGVDWIkxtBqkRFB715uOHhIVRIRmh30iVkgA5EgACAAD0gBjaOpJvn/OTqjcYhm2/89blZehWGTdeMRy2WX1XP0czgGsGdN3EkONmixWF2+fn6zSXYGhWOtYhZ1Q81poBZdN+B7+46rXEexJDmffb4fBykZUrLr1mxEVEap896tRh+99sT8eiKwBPJwEgAABAD5g999lVLw1ZLCNEaFXPwRfqMCwq2ZrDgDtVxo3XJecNVh/GY9fVcs0ArhnQdROvodmaIvx7/TteUW0N1V7puNP8uWW/vQoxgsp2Ud0Xj13frhaPF+/f0W/9TBlExlyKI1UxRnDYvv/Ntmjh8OcG6GUCQAAAgB7wYCOQikU6mq6/5paq11pJOMKwWnMYcLfKuPHoVH0XmgFcBGoR1I0kXkOzNSscYzXeCOJiUY52nSoda83tZlDZFAt/XPKH09NpFx9fBpjtYWCIBUXO/KcLqi2A/FkFGAAA6Fd9vwpwUwxTrSvfYi675ryARxz0ybIqbSy6vR8xdDWq10IEcp1WAY6hre/e/2PV1sgiXDv6+EOrrbGtAhyVjGedfOHAir4RzjVXPI6fRzA4FnHfCPrGIoZG/+7KG8oKwKaf3va1chiyVYCB3KkABAAAWMUieKvDvzBry02qXiu8Gmv4F7pVxo3FpRdfUfVGF0NqxzKfXlMEfW9592urrVYlYbO6sdkfTdy301x8sU/tcyFGyLf7PjuXVYFNEzFkGqAfCAABAABWoZiL7iOHfr7aammujvvLHy6oei3tQ2ujNYfXjmV+vk7a5xmMx+z0XE3jCexqD9y/pOq1LF3ySNVL6YwTWpWBIYY6d3r+5pDeZmAZi3xEFWVUEH74HZ/rGE7GgibxuLUlDzxc9QDyJgAEAABYSRbefnc53DRazKHXCq0OG1L9F8OEm6vjnn3Kt6tea9htDN1tb58768PVLbpXxo1mwc+vrXot8Zidnqu56EgzsBtNBHKxX7HCbi3CvPkv2anst1c6fuiEd3V8/s+e+cHqFkOrEKfPWG/gfYzHOfkTZ5Xhai1uF8OPmyscN6sRm26/eeHAv1O3NtIiIgC9RgAIAACwksTcdzHXXLS3vfToIRV3Iaru9t5/sMouQqZmYPW6Q/auekNFYNisAhzPUN7a10/7TtVr7UczhGxqLgwSQVv7cNtazEHXbFGZF/MLNkO+WNSjnv+vvdIxqvU6ab++Di4jzGtW98V7G+FqVAXWlYH13IMh5lns9hpjrsD636lb+8LHzqxuDdD7BIAAAAA9ICr/Tjn/2IFALFx41o+qXqtarrn6b7s3N6rZxjs/X3v13WEf6r4QR3sA1x7cjUW8lqM+fVh6x/vfUF0zvNKx+T40xfXNKsQ6uIww76xLTyjfx6aoCmxWWIYIOLtV/wHkyCrAAABAv+qLVYBjddxu1pu2btpym1lpo8026Bh4XXHpNemhJa156mbO2jjtNH9u2e8kQrxmGDd/r53SjA3Xr7ZaC40sWnhP2W9/rBjS+vurB4cNRxVitwAudHqs9se4/Ee/TesXz7/DzltV17TM2Xb2sCAzwsqfXNxaoTjsuMvcEf9N25+rfWXlqJxc8MtWZWDsR+2VB704PW+37YZV/rW/d2Mx2r/HqmYVYKBJAAgAAPSrvggAYVUQAAJNhgADAAAAQMYEgAAAAACQMQEgAAAAAGRMAAgAAAAAGRMAAgAAAEDGBIAAAAAAkDEBIAAAAABkTAAIAAAAABkTAAIAAABAxgSAAAAAAJAxASAAAAAAZEwACAAAAAAZEwACAAAAQMYEgAAAAACQMQEgAAAAAGRMAAgAAAAAGRMAAgAAAEDGBIAAAAAAkDEBIAAAAABkTAAIAAAAABkTAAIAAABAxgSAAAAAAJAxASAAAAAAZEwACAAAAAAZEwACAAAAQMYEgAAAAACQMQEgAAAAAGRMAAgAAAAAGRMAAgAAAEDGBIAAAAAAkDEBIAAAAABkTAAIAAAAABkTAAIAAABAxgSAAAAAAJAxASAAAAAAZEwACAAAAAAZEwACAAAAQMYEgAAAAACQMQEgAAAAAGRMAAgAAAAAGRMAAgAAAEDGBIAAAAAAkDEBIAAAAABkTAAIAAAAABkTAAIAAABAxgSAAAAAAJAxASAAAAAAZEwACAAAAAAZEwACAAAAQMYEgAAAAACQMQEgAAAAAGRMAAgAAAAAGRMAAgAAAEDGBIAAAACQkSeeeLLqAbQIAAEAgL62dOmyqgeEO25ZWPVKQzaAyUkACAAA9KufxH9+ccmCcgNoaXwn4jvyRKsLTGYCQAAAoF+dGf85/R+/ka5dcFN5BUx28V2I70Sl/I4ArF5dAgAA9Jsbi7ZH0Z5z+Y+vSS946U7pmRtNL38Ak9GtN96ZPvjW/5MefeTR2Izqv48U7X9iA5jcVqsuAQAA+tHUot1atJmxcdSnD0sHH/aq6MKkct4Z308n/cMZ1VZaVLStira03AImPQEgAADQ7zYq2r8Vbe/YeM7c2emTpx6Rttp2dmxC1qLq79j3nJL+86Y7q2vKyr+/Kdq95RZAQQAIAADkYI2ifbRonyy3Ci8/YI/0no8ekjbdfOPqGsjHn/94Tzr1M+ekH190eXVN6diifaZoFv4AhhAAAgAAOdmiaKcXrawGDLvuOS8d9qE3pe133jqtsYZp0OlfTzzxZLr+mlvSGSd8I1112XXVtaWo+ju8aHeUWwBtBIAAAECOYnGQU4s2r9wqzNhwenrnkQemfV63e9Ffv7oWet/i+x5Ml377ivSVL1xQ9B+ori1FCvieog0pAwRoJwAEAAByFgFgVEYdUW5VYp7AA962T9rz5c83RJieFEN8L/vxb9NFX720Ob9f7ZSiRaXrkDJAgG4EgAAAwGQQqwW/s2h/W7SBqsAQlYEHvnPftMuL5hkmzCpTD++9+lfXpQu+8sP2Sr8QYd+Xi/aVolndFxgXASAAADDZxKrBbyrasDAwxJyBL3rV/PS83bdLW2w9SyDI0yICvztuWZh+d8UN6VffX9A+p1+tDv2+UTSr+gLLTQAIAABMZhEG7lq0txbtb+KKdjFc+GWvfWHadqc5acttZhkyzHKJIb2337ww3Xjtbemn3/l1p2G9tX8r2teKdlXRhH7AhBAAAgAAtKxRtG2L9uKiHVC0gZWE20WV4E67bTcQCm602QYqBSlFZd+9d90/EPZde+UN3ar7arGC70VF+0XRbizaE0UDmFACQAAAgO62KNruRXtN0V5atJlF6yjmEtxlz+3TvF3npmfN3kQwmLlm0PenO+9O1111U7r6sus7zd3XtKhoPyvad4t2RdHuKBrA004ACAAAMHaxmMhzihZzB44aCtZefsAeaf0N10877LxVWm/aumU4OH2DaWnK1LWrW9CLli19ND1w/5Iy5HtoycPpD9fcmh6878H044sur24xombYFyWA/1k0i3cAq4QAEAAAYMXE0OFZRduuaBEORsXgmILBUFcO1gFhmLPt7DR16pS09jprFT9fv7yOibX4vgfTo488lpYuXZZuu7E1H18d8I2hkq+pDvqioi9CvhuKtrBohvICPUMACAAA8PSJIcTrFS0qBiPdm1u0MYeDTTHv4PQNp5X9GGY8bUYUIxYPNGvjtPHMZ5b9MFkXKYlFNmr3LPpLWrSwtb1k8dJyeG544L4lo83H100d8sUD3Vq0eJCHimYIL9AXBIAAAACrRqxAHCleVA5OL1odEEaC13UBkvGK4cft9njF86veUO1h4srUDO3aXf6j31a9QWMchjtWsRBHPHkd8EX5X1TyxZBdK/ECfU8ACAAA0LvqkDDE0OJazD9Y+5vqkqH+rboMMQ9fLYbqBuEeMGkIAAEAAPJRz0dYq4cfN0WJXzNMbFrVYWIztGuK0O4vre6Aehhuzbx7AAAAAPA0ivAxGgAAAAAAAAAAAAAAAAAAAAAAAAAAAAAAAAAAAAAAAAAAAAAAAAAAAAAAAAAAAAAAAAAAAAAAAAAAAAAAAAAAAAAAAAAAAAAAAAAAAAAAAAAAAAAAAAAAAAAAAAAAAAAAAAAAAAAAAAAAAAAAAAAAAAAAAAAAAAAAAAAAAAAAAAAAAAAAAAAAAAAAAAAAAAAAAAAAAAAAAAAAAAAAAAAAAAAAAAAAAAAAAAAAAAAAAAAAAAAAAAAAAAAAAAAAAJCZlP5/257QDBkmM3kAAAAASUVORK5CYII=&quot; style=&quot;-webkit-user-drag: none; -webkit-tap-highlight-color: transparent; margin: 0px; padding: 0px; user-select: text; border: none; white-space: pre !important; vertical-align: baseline; width: 619px; height: 408px;&quot;&gt;&lt;span class=&quot;WACImageBorder SCXW231389581 BCX8&quot; style=&quot;-webkit-user-drag: none; -webkit-tap-highlight-color: transparent; margin: 0px; padding: 0px; user-select: text; white-space: pre !important; display: block; position: absolute; transform: rotate(0deg); width: 619px; height: 408px; left: -1px; top: -1px;&quot;&gt;&lt;/span&gt;&lt;/span&gt;&lt;/span&gt;&lt;span data-contrast=&quot;none&quot; lang=&quot;RO-RO&quot; class=&quot;TextRun EmptyTextRun SCXW231389581 BCX8&quot; style=&quot;-webkit-user-drag: none; -webkit-tap-highlight-color: transparent; margin: 0px; padding: 0px; user-select: text; font-variant: normal; color: rgb(0, 0, 0); font-size: 12pt; font-style: normal; font-weight: normal; letter-spacing: normal; orphans: 2; text-align: left; text-indent: 0px; text-transform: none; widows: 2; word-spacing: 0px; -webkit-text-stroke-width: 0px; white-space: pre-wrap; background-color: rgb(255, 255, 255); text-decoration-thickness: initial; text-decoration-style: initial; text-decoration-color: initial; line-height: 20.925px; font-family: Arial, Arial_EmbeddedFont, Arial_MSFontService, sans-serif;&quot;&gt;&lt;br class=&quot;Apple-interchange-newline&quot;&gt;&#xa;&#xa;&lt;/span&gt;" style="text;whiteSpace=wrap;html=1;" vertex="1" parent="1">
          <mxGeometry x="300" y="170" width="750" height="500" as="geometry" />
        </mxCell>
        <mxCell id="KACX-hMGY0aRz_YMzDZ6-2" value="" style="endArrow=classic;startArrow=classic;html=1;rounded=0;entryX=0.293;entryY=0.56;entryDx=0;entryDy=0;entryPerimeter=0;" edge="1" parent="1" target="KACX-hMGY0aRz_YMzDZ6-1">
          <mxGeometry width="50" height="50" relative="1" as="geometry">
            <mxPoint x="520" y="490" as="sourcePoint" />
            <mxPoint x="520" y="480" as="targetPoint" />
          </mxGeometry>
        </mxCell>
        <mxCell id="KACX-hMGY0aRz_YMzDZ6-3" value="&lt;b&gt;&lt;font style=&quot;font-size: 15px;&quot;&gt;External APIs&lt;/font&gt;&lt;/b&gt;" style="rounded=1;whiteSpace=wrap;html=1;shadow=1;fillColor=#f5f5f5;strokeColor=#666666;fontColor=#333333;" vertex="1" parent="1">
          <mxGeometry x="460" y="490" width="120" height="60" as="geometry" />
        </mxCell>
        <mxCell id="KACX-hMGY0aRz_YMzDZ6-5" value="&lt;b&gt;&lt;font style=&quot;font-size: 14px;&quot;&gt;CLIENT&lt;/font&gt;&lt;/b&gt;" style="rounded=1;whiteSpace=wrap;html=1;fillColor=#f5f5f5;fontColor=#333333;strokeColor=#666666;" vertex="1" parent="1">
          <mxGeometry x="320" y="280" width="90" height="190" as="geometry" />
        </mxCell>
        <mxCell id="KACX-hMGY0aRz_YMzDZ6-6" value="&lt;b&gt;&lt;font style=&quot;font-size: 12px;&quot;&gt;CONTROLLER&lt;/font&gt;&lt;/b&gt;" style="rounded=1;whiteSpace=wrap;html=1;fillColor=#CCCCFF;strokeColor=#d79b00;" vertex="1" parent="1">
          <mxGeometry x="472.5" y="300" width="95" height="170" as="geometry" />
        </mxCell>
        <mxCell id="KACX-hMGY0aRz_YMzDZ6-7" value="&lt;b&gt;&lt;font style=&quot;font-size: 12px;&quot;&gt;SERVICE&lt;/font&gt;&lt;/b&gt;" style="rounded=1;whiteSpace=wrap;html=1;fillColor=#d0cee2;strokeColor=#56517e;" vertex="1" parent="1">
          <mxGeometry x="620" y="290" width="90" height="170" as="geometry" />
        </mxCell>
        <mxCell id="KACX-hMGY0aRz_YMzDZ6-8" value="&lt;b&gt;&lt;font style=&quot;font-size: 12px;&quot;&gt;REPOSITORY&lt;/font&gt;&lt;/b&gt;" style="rounded=1;whiteSpace=wrap;html=1;fillColor=#cce5ff;strokeColor=#36393d;" vertex="1" parent="1">
          <mxGeometry x="440" y="190" width="210" height="70" as="geometry" />
        </mxCell>
        <mxCell id="KACX-hMGY0aRz_YMzDZ6-9" value="&lt;b&gt;&lt;font style=&quot;font-size: 12px;&quot;&gt;MODEL&lt;/font&gt;&lt;/b&gt;" style="rounded=1;whiteSpace=wrap;html=1;fillColor=#fad7ac;strokeColor=#b46504;" vertex="1" parent="1">
          <mxGeometry x="770" y="290" width="100" height="170" as="geometry" />
        </mxCell>
        <mxCell id="KACX-hMGY0aRz_YMzDZ6-10" value="&lt;b&gt;&lt;font style=&quot;font-size: 12px;&quot;&gt;DEPENDENCY INJECTION&lt;/font&gt;&lt;/b&gt;" style="rounded=1;whiteSpace=wrap;html=1;fillColor=#FFCCE6;strokeColor=#b46504;" vertex="1" parent="1">
          <mxGeometry x="653" y="201" width="110" height="70" as="geometry" />
        </mxCell>
        <mxCell id="KACX-hMGY0aRz_YMzDZ6-11" value="&lt;b&gt;SPRING DATA&lt;/b&gt;" style="rounded=1;whiteSpace=wrap;html=1;fillColor=#D5E8D4;strokeColor=#b46504;" vertex="1" parent="1">
          <mxGeometry x="830" y="467" width="110" height="70" as="geometry" />
        </mxCell>
        <mxCell id="KACX-hMGY0aRz_YMzDZ6-13" value="" style="shape=image;verticalLabelPosition=bottom;labelBackgroundColor=default;verticalAlign=top;aspect=fixed;imageAspect=0;image=https://upload.wikimedia.org/wikipedia/commons/thumb/4/44/Spring_Framework_Logo_2018.svg/2560px-Spring_Framework_Logo_2018.svg.png;" vertex="1" parent="1">
          <mxGeometry x="300" y="60" width="233.77" height="60" as="geometry" />
        </mxCell>
        <mxCell id="KACX-hMGY0aRz_YMzDZ6-14" value="&lt;b&gt;&lt;font style=&quot;font-size: 24px;&quot;&gt;Arhitectura Backend (Spring Boot)&lt;/font&gt;&lt;/b&gt;" style="text;html=1;align=center;verticalAlign=middle;resizable=0;points=[];autosize=1;strokeColor=none;fillColor=none;" vertex="1" parent="1">
          <mxGeometry x="562.5" y="70" width="420" height="40" as="geometry" />
        </mxCell>
      </root>
    </mxGraphModel>
  </diagram>
</mxfile>
